<svg width="56" height="62" viewBox="0 0 56 62" fill="none" xmlns="http://www.w3.org/2000/svg">
<path d="M8.42929 14.5238L12.8595 23L15.3488 23L10.376 13.4855C10.1895 13.1287 10.1518 12.72 10.2701 12.3349C10.3886 11.9485 10.6497 11.6317 11.0051 11.443L28.0412 2.39805C28.7756 2.00821 29.6875 2.29253 30.0739 3.03196L40.5106 22.9999L43 23L32.0207 1.99364C31.0683 0.171978 28.8236 -0.529756 27.0169 0.429612L9.98112 9.47456C9.10437 9.94012 8.46033 10.7221 8.16742 11.6766C7.87484 12.63 7.96797 13.6412 8.42929 14.5238Z" fill="#D2A158"/>
<path d="M15.4949 17.6263L18.3035 23L20.793 23L17.9029 17.4703C18.6752 16.822 19.2465 15.9621 19.5506 14.9711C19.8539 13.9824 19.8646 12.9498 19.5921 11.9768L23.6254 9.83538C24.9456 11.429 27.0928 12.0993 29.0754 11.5381L35.0663 23L37.5557 22.9999L30.5632 9.62144C30.2797 9.07904 29.6149 8.87111 29.0776 9.15632C27.5891 9.94646 25.7403 9.36959 24.9566 7.87005C24.673 7.32754 24.0083 7.11972 23.471 7.40493L17.6939 10.4721C17.4353 10.6095 17.2412 10.8451 17.1547 11.1271C17.0681 11.4092 17.0961 11.7143 17.2326 11.9755C17.6114 12.7002 17.6878 13.5303 17.4477 14.3128C17.2071 15.0971 16.6773 15.74 15.9562 16.1229C15.6975 16.2603 15.5035 16.4959 15.4169 16.7779C15.3303 17.06 15.3584 17.3651 15.4949 17.6263Z" fill="#D2A158"/>
<rect x="1.25" y="23.25" width="53.5" height="37.2419" rx="4.75" stroke="#555555" stroke-width="2.5"/>
<path d="M49.9948 57.5048L37.7227 45.2327C32.353 39.863 23.647 39.863 18.2773 45.2327L6.0052 57.5048C4.90276 58.6072 5.68355 60.4922 7.24264 60.4922H28H48.7574C50.3164 60.4922 51.0972 58.6072 49.9948 57.5048Z" stroke="#555555" stroke-width="2.5"/>
<path d="M51.153 26.0889L34.8497 46.5996C31.3466 51.0067 24.6534 51.0067 21.1503 46.5996L4.84696 26.0889C3.93547 24.9422 4.75206 23.25 6.2169 23.25H28H49.7831C51.2479 23.25 52.0645 24.9422 51.153 26.0889Z" stroke="#555555" stroke-width="2.5"/>
</svg>
