<svg width="52" height="64" viewBox="0 0 52 64" fill="none" xmlns="http://www.w3.org/2000/svg">
<g clip-path="url(#clip0)">
<path d="M50.7649 38.6037H49.3371V31.0034C49.3371 28.1655 47.0282 25.8566 44.1902 25.8566H42.4652L47.4962 16.3277C48.0201 15.3354 48.1258 14.1986 47.7936 13.1268C47.4609 12.0538 46.7295 11.1747 45.7339 10.6513L26.3878 0.482968C24.3361 -0.595554 21.7869 0.193337 20.7054 2.24125L8.23716 25.8566H5.1311C2.29317 25.8566 -0.015625 28.1655 -0.015625 31.0034V58.8531C-0.015625 61.6911 2.29317 64 5.1311 64H44.1904C47.0283 64 49.3372 61.6911 49.3372 58.8531V51.2529H50.765C51.4554 51.2529 52.015 50.6931 52.015 50.0028V39.8538C52.0149 39.1634 51.4553 38.6037 50.7649 38.6037V38.6037ZM22.9162 3.40853C23.3551 2.57726 24.3906 2.25763 25.2246 2.69589L44.571 12.8642C44.9746 13.0763 45.2711 13.4325 45.4058 13.8669C45.54 14.2999 45.4973 14.7593 45.2855 15.1604L39.6383 25.8566H36.2828L39.4724 19.8155C39.6274 19.5218 39.6593 19.1788 39.5609 18.8617C39.4626 18.5447 39.2423 18.2798 38.9485 18.1253C38.1296 17.6949 37.528 16.9722 37.2547 16.0904C36.9821 15.2108 37.0689 14.2776 37.499 13.4629C37.654 13.1692 37.6859 12.8262 37.5875 12.5091C37.4892 12.1921 37.2689 11.9272 36.9751 11.7727L30.4146 8.32462C29.8045 8.00399 29.0496 8.23762 28.7276 8.84751C27.8375 10.5333 25.738 11.1818 24.0476 10.2935C23.4375 9.97291 22.6826 10.2067 22.3606 10.8164L14.4198 25.8565H11.0642L22.9162 3.40853ZM34.8667 16.8305C35.2119 17.9446 35.8608 18.9113 36.7378 19.6401L33.4558 25.8566H17.2468L24.0501 12.9711C26.3016 13.602 28.7401 12.8485 30.2392 11.0569L34.8196 13.4644C34.5101 14.5581 34.5222 15.719 34.8667 16.8305ZM46.8372 58.8531C46.8372 60.3127 45.6498 61.4999 44.1904 61.4999H5.1311C3.6717 61.4999 2.48442 60.3127 2.48442 58.8531V31.0034C2.48442 29.5439 3.6717 28.3566 5.1311 28.3566H44.1904C45.6498 28.3566 46.8372 29.5439 46.8372 31.0034V38.6037H41.9563C38.469 38.6037 35.6317 41.4409 35.6317 44.9284C35.6317 48.4158 38.4689 51.253 41.9563 51.253H46.8372V58.8531ZM49.5148 48.7528H41.9562C39.8473 48.7528 38.1316 47.037 38.1316 44.9282C38.1316 42.8194 39.8473 41.1037 41.9562 41.1037H49.5148V48.7528Z" fill="#555555"/>
<path d="M47.4963 16.3277L42.4654 25.8566H39.6384L45.2857 15.1604C45.4974 14.7593 45.5402 14.2999 45.4059 13.8669C45.2713 13.4325 44.9748 13.0763 44.5711 12.8642L25.2248 2.69589C24.3907 2.25763 23.3552 2.57726 22.9163 3.40853L11.0644 25.8565L8.2373 25.8566L20.7055 2.24125C21.7871 0.193337 24.3362 -0.595554 26.3879 0.482968L45.734 10.6513C46.7297 11.1747 47.4611 12.0538 47.7937 13.1268C48.126 14.1986 48.0202 15.3354 47.4963 16.3277Z" fill="#D2A158"/>
<path d="M39.4725 19.8155L36.283 25.8566H33.4559L36.738 19.6401C35.861 18.9113 35.2121 17.9446 34.8668 16.8305C34.5223 15.719 34.5102 14.5581 34.8197 13.4644L30.2394 11.0569C28.7402 12.8485 26.3018 13.602 24.0502 12.9711L17.247 25.8566L14.4199 25.8565L22.3607 10.8164C22.6827 10.2067 23.4376 9.97291 24.0477 10.2935C25.7381 11.1818 27.8377 10.5333 28.7277 8.84751C29.0497 8.23762 29.8046 8.00399 30.4147 8.32462L36.9752 11.7727C37.269 11.9272 37.4894 12.1921 37.5876 12.5091C37.686 12.8262 37.6541 13.1692 37.4991 13.4629C37.069 14.2776 36.9822 15.2108 37.2549 16.0904C37.5281 16.9722 38.1298 17.6949 38.9487 18.1253C39.2424 18.2798 39.4628 18.5447 39.561 18.8617C39.6594 19.1788 39.6275 19.5218 39.4725 19.8155Z" fill="#D2A158"/>
</g>
<defs>
<clipPath id="clip0">
<rect width="52" height="64" fill="white"/>
</clipPath>
</defs>
</svg>
