<svg width="360" height="240" viewBox="0 0 360 240" fill="none" xmlns="http://www.w3.org/2000/svg">
<path d="M0 20C0 8.9543 8.95431 0 20 0H340C351.046 0 360 8.95431 360 20V220C360 231.046 351.046 240 340 240H20C8.95432 240 0 231.046 0 220V20Z" fill="#F6F3EF"/>
<path d="M104 96L128 96" stroke="#D2A158" stroke-width="8" stroke-linecap="round"/>
<path d="M97 144L130 144" stroke="#D2A158" stroke-width="8" stroke-linecap="round"/>
<path d="M118 128L157.013 128" stroke="#D2A158" stroke-width="8" stroke-linecap="round"/>
<rect x="142" y="80" width="116" height="80" rx="8" fill="#F6F3EF" stroke="#555555" stroke-width="8"/>
<path d="M151.071 156.586C149.811 157.846 150.703 160 152.485 160H200H247.515C249.297 160 250.189 157.846 248.929 156.586L207.778 115.435C203.482 111.139 196.518 111.139 192.222 115.435L151.071 156.586Z" stroke="#555555" stroke-width="8"/>
<path d="M148.868 83.2445C147.826 81.934 148.76 80 150.434 80H200H249.566C251.24 80 252.174 81.934 251.132 83.2445L212.525 131.814C206.119 139.873 193.881 139.873 187.475 131.814L148.868 83.2445Z" fill="#F6F3EF" stroke="#555555" stroke-width="8"/>
<path d="M108 118L151.603 118C154.916 118 157.603 115.314 157.603 112C157.603 108.686 154.916 106 151.603 106L108 106C104.686 106 102 108.686 102 112C102 115.314 104.686 118 108 118Z" fill="#D2A158" stroke="#F6F3EF" stroke-width="4" stroke-linecap="round"/>
</svg>
