<svg width="360" height="240" viewBox="0 0 360 240" fill="none" xmlns="http://www.w3.org/2000/svg">
<path d="M0 20C0 8.9543 8.95431 0 20 0H340C351.046 0 360 8.95431 360 20V220C360 231.046 351.046 240 340 240H20C8.95432 240 0 231.046 0 220V20Z" fill="#F6F3EF"/>
<path d="M112.949 86.3077L142.782 86.3077" stroke="#D2A158" stroke-width="8" stroke-linecap="round"/>
<path d="M101.474 106.308L140.487 106.308" stroke="#D2A158" stroke-width="8" stroke-linecap="round"/>
<path d="M94.5897 126.308L138.192 126.308" stroke="#D2A158" stroke-width="8" stroke-linecap="round"/>
<path d="M129.013 65.0962C126.804 65.0962 125.013 66.8871 125.013 69.0962C125.013 71.3053 126.804 73.0962 129.013 73.0962V65.0962ZM263.263 132.205L259.363 131.314L259.351 131.367L259.34 131.421L263.263 132.205ZM120.981 148.859C118.772 148.859 116.981 150.65 116.981 152.859C116.981 155.068 118.772 156.859 120.981 156.859V148.859ZM259.099 151.121L255.211 150.182L259.099 151.121ZM209.932 71.8411L206.009 71.0567L209.932 71.8411ZM129.013 73.0962H207.681V65.0962H129.013V73.0962ZM206.009 71.0567L201.969 91.2604L209.813 92.8294L213.854 72.6256L206.009 71.0567ZM205.891 96.0449H236.872V88.0449H205.891V96.0449ZM236.872 96.0449C242.093 96.0449 249.375 97.8493 254.441 102.908C259.27 107.729 262.809 116.241 259.363 131.314L267.162 133.096C271.061 116.041 267.332 104.473 260.094 97.2463C253.093 90.2565 243.507 88.0449 236.872 88.0449V96.0449ZM259.34 131.421C257.795 139.15 256.138 146.338 255.211 150.182L262.987 152.059C263.933 148.138 265.614 140.845 267.185 132.99L259.34 131.421ZM256.881 148.859H193.269V156.859H256.881V148.859ZM193.269 148.859H120.981V156.859H193.269V148.859ZM197.186 153.672L209.808 92.8578L201.974 91.232L189.353 152.046L197.186 153.672ZM255.211 150.182C255.402 149.389 256.108 148.859 256.881 148.859V156.859C259.761 156.859 262.302 154.899 262.987 152.059L255.211 150.182ZM207.681 73.0962C206.605 73.0962 205.798 72.1118 206.009 71.0567L213.854 72.6256C214.633 68.7304 211.654 65.0962 207.681 65.0962V73.0962Z" fill="#555555"/>
<circle cx="153.109" cy="154.006" r="16.6218" fill="#F6F3EF" stroke="#555555" stroke-width="8"/>
<circle cx="233.429" cy="154.006" r="16.6218" fill="#F6F3EF" stroke="#555555" stroke-width="8"/>
</svg>
