<svg width="360" height="240" viewBox="0 0 360 240" fill="none" xmlns="http://www.w3.org/2000/svg">
<path d="M0 20C0 8.9543 8.95431 0 20 0H340C351.046 0 360 8.95431 360 20V220C360 231.046 351.046 240 340 240H20C8.95432 240 0 231.046 0 220V20Z" fill="#F6F3EF"/>
<path d="M220 167.5C220 168.674 219.451 170.146 217.722 171.864C215.978 173.598 213.252 175.343 209.562 176.894C202.2 179.99 191.75 182 180 182C168.25 182 157.8 179.99 150.438 176.894C146.748 175.343 144.022 173.598 142.278 171.864C140.549 170.146 140 168.674 140 167.5C140 166.326 140.549 164.854 142.278 163.136C144.022 161.402 146.748 159.657 150.438 158.106C157.8 155.01 168.25 153 180 153C191.75 153 202.2 155.01 209.562 158.106C213.252 159.657 215.978 161.402 217.722 163.136C219.451 164.854 220 166.326 220 167.5Z" stroke="#D2A158" stroke-width="8"/>
<path d="M216 94.1561C216 98.8733 214.403 105.863 211.588 113.975C208.808 121.986 204.967 130.738 200.762 138.846C196.547 146.971 192.033 154.321 187.944 159.578C185.892 162.218 184.039 164.208 182.474 165.501C180.841 166.849 180.057 166.99 180.003 166.999C180 167 179.999 167 180 167C180.001 167 180 167 179.997 166.999C179.943 166.99 179.159 166.849 177.526 165.501C175.961 164.208 174.108 162.218 172.056 159.578C167.967 154.321 163.453 146.971 159.238 138.846C155.033 130.738 151.192 121.986 148.412 113.975C145.597 105.863 144 98.8733 144 94.1561C144 74.8199 160.037 59 180 59C199.963 59 216 74.8199 216 94.1561Z" fill="#F6F3EF" stroke="#555555" stroke-width="8"/>
<circle cx="180" cy="95" r="10" stroke="#555555" stroke-width="8"/>
</svg>
