<svg width="36" height="36" viewBox="0 0 36 36" fill="none" xmlns="http://www.w3.org/2000/svg">
<g clip-path="url(#clip0)">
<path d="M19.545 2.80363L3.06 0.298628C2.295 0.178628 1.515 0.388628 0.93 0.883627C0.345 1.39363 0 2.12863 0 2.89363V34.4986C0 35.3236 0.675 35.9986 1.5 35.9986H6.375V28.1236C6.375 26.6686 7.545 25.4986 9 25.4986H12.75C14.205 25.4986 15.375 26.6686 15.375 28.1236V35.9986H21.75V5.39862C21.75 4.10862 20.82 3.01363 19.545 2.80363V2.80363ZM8.25 22.1236H6C5.379 22.1236 4.875 21.6196 4.875 20.9986C4.875 20.3776 5.379 19.8736 6 19.8736H8.25C8.871 19.8736 9.375 20.3776 9.375 20.9986C9.375 21.6196 8.871 22.1236 8.25 22.1236ZM8.25 17.6236H6C5.379 17.6236 4.875 17.1196 4.875 16.4986C4.875 15.8776 5.379 15.3736 6 15.3736H8.25C8.871 15.3736 9.375 15.8776 9.375 16.4986C9.375 17.1196 8.871 17.6236 8.25 17.6236ZM8.25 13.1236H6C5.379 13.1236 4.875 12.6196 4.875 11.9986C4.875 11.3776 5.379 10.8736 6 10.8736H8.25C8.871 10.8736 9.375 11.3776 9.375 11.9986C9.375 12.6196 8.871 13.1236 8.25 13.1236ZM8.25 8.62362H6C5.379 8.62362 4.875 8.11962 4.875 7.49862C4.875 6.87762 5.379 6.37362 6 6.37362H8.25C8.871 6.37362 9.375 6.87762 9.375 7.49862C9.375 8.11962 8.871 8.62362 8.25 8.62362ZM15.75 22.1236H13.5C12.879 22.1236 12.375 21.6196 12.375 20.9986C12.375 20.3776 12.879 19.8736 13.5 19.8736H15.75C16.371 19.8736 16.875 20.3776 16.875 20.9986C16.875 21.6196 16.371 22.1236 15.75 22.1236ZM15.75 17.6236H13.5C12.879 17.6236 12.375 17.1196 12.375 16.4986C12.375 15.8776 12.879 15.3736 13.5 15.3736H15.75C16.371 15.3736 16.875 15.8776 16.875 16.4986C16.875 17.1196 16.371 17.6236 15.75 17.6236ZM15.75 13.1236H13.5C12.879 13.1236 12.375 12.6196 12.375 11.9986C12.375 11.3776 12.879 10.8736 13.5 10.8736H15.75C16.371 10.8736 16.875 11.3776 16.875 11.9986C16.875 12.6196 16.371 13.1236 15.75 13.1236ZM15.75 8.62362H13.5C12.879 8.62362 12.375 8.11962 12.375 7.49862C12.375 6.87762 12.879 6.37362 13.5 6.37362H15.75C16.371 6.37362 16.875 6.87762 16.875 7.49862C16.875 8.11962 16.371 8.62362 15.75 8.62362Z" fill="#D2A158"/>
<path d="M33.93 16.2638L23.25 14.0273V36.0008H33.375C34.8225 36.0008 36 34.8233 36 33.3758V18.8288C36 17.5898 35.1555 16.5353 33.93 16.2638V16.2638ZM30.375 31.5008H28.125C27.504 31.5008 27 30.9968 27 30.3758C27 29.7548 27.504 29.2508 28.125 29.2508H30.375C30.996 29.2508 31.5 29.7548 31.5 30.3758C31.5 30.9968 30.996 31.5008 30.375 31.5008ZM30.375 27.0008H28.125C27.504 27.0008 27 26.4968 27 25.8758C27 25.2548 27.504 24.7508 28.125 24.7508H30.375C30.996 24.7508 31.5 25.2548 31.5 25.8758C31.5 26.4968 30.996 27.0008 30.375 27.0008ZM30.375 22.5008H28.125C27.504 22.5008 27 21.9968 27 21.3758C27 20.7548 27.504 20.2508 28.125 20.2508H30.375C30.996 20.2508 31.5 20.7548 31.5 21.3758C31.5 21.9968 30.996 22.5008 30.375 22.5008Z" fill="#D2A158"/>
</g>
<defs>
<clipPath id="clip0">
<rect width="36" height="36" fill="white"/>
</clipPath>
</defs>
</svg>
