<svg width="32" height="32" viewBox="0 0 32 32" fill="none" xmlns="http://www.w3.org/2000/svg">
<g clip-path="url(#clip0)">
<path d="M0.313275 1.43104C0.313275 1.13399 0.431275 0.849116 0.641316 0.639075C0.851356 0.429035 1.13623 0.311035 1.43327 0.311035H2.41439C4.04287 0.311035 4.97919 1.37056 5.52127 2.42783C5.89087 3.15136 6.15743 4.03392 6.37919 4.79999H29.44C29.7861 4.8001 30.1275 4.88041 30.4374 5.03462C30.7472 5.18883 31.0171 5.41276 31.2259 5.68881C31.4347 5.96487 31.5767 6.28556 31.6407 6.62571C31.7047 6.96585 31.689 7.31621 31.5949 7.64927L28.2438 19.4653C27.9773 20.4027 27.4123 21.2277 26.6345 21.8151C25.8568 22.4024 24.9087 22.7201 23.9341 22.72H12.5571C11.5744 22.7203 10.6188 22.3975 9.83757 21.8013C9.05636 21.2051 8.49287 20.3685 8.23391 19.4205L6.79583 14.1453C6.78759 14.1216 6.78012 14.0977 6.77343 14.0736L4.46399 6.24032L4.23999 5.48544C4.01599 4.7104 3.81887 4.02495 3.52319 3.44927C3.16703 2.75487 2.83999 2.55328 2.41215 2.55328H1.43104C1.13399 2.55328 0.849116 2.43528 0.639075 2.22523C0.429034 2.01519 0.311035 1.73032 0.311035 1.43327L0.313275 1.43104ZM8.93279 13.4688L10.3955 18.8358C10.5252 19.3096 10.807 19.7277 11.1976 20.0256C11.5882 20.3235 12.0659 20.4847 12.5571 20.4845H23.9363C24.4234 20.484 24.897 20.3247 25.2855 20.0309C25.6739 19.737 25.956 19.3246 26.089 18.856L29.44 7.04H7.03999L8.93279 13.4666V13.4688Z" fill="#555555" stroke="white"/>
<path d="M15.9998 28.32C15.9998 29.2111 15.6458 30.0657 15.0157 30.6958C14.3855 31.326 13.5309 31.68 12.6398 31.68C11.7487 31.68 10.894 31.326 10.2639 30.6958C9.63378 30.0657 9.27979 29.2111 9.27979 28.32C9.27979 27.4288 9.63378 26.5742 10.2639 25.9441C10.894 25.314 11.7487 24.96 12.6398 24.96C13.5309 24.96 14.3855 25.314 15.0157 25.9441C15.6458 26.5742 15.9998 27.4288 15.9998 28.32ZM13.7598 28.32C13.7598 28.0229 13.6418 27.738 13.4317 27.528C13.2217 27.318 12.9368 27.2 12.6398 27.2C12.3427 27.2 12.0579 27.318 11.8478 27.528C11.6378 27.738 11.5198 28.0229 11.5198 28.32C11.5198 28.617 11.6378 28.9019 11.8478 29.1119C12.0579 29.322 12.3427 29.44 12.6398 29.44C12.9368 29.44 13.2217 29.322 13.4317 29.1119C13.6418 28.9019 13.7598 28.617 13.7598 28.32Z" fill="#555555" stroke="white"/>
<path d="M27.2 28.32C27.2 29.2111 26.846 30.0657 26.2159 30.6958C25.5857 31.326 24.7311 31.68 23.84 31.68C22.9489 31.68 22.0942 31.326 21.4641 30.6958C20.834 30.0657 20.48 29.2111 20.48 28.32C20.48 27.4288 20.834 26.5742 21.4641 25.9441C22.0942 25.314 22.9489 24.96 23.84 24.96C24.7311 24.96 25.5857 25.314 26.2159 25.9441C26.846 26.5742 27.2 27.4288 27.2 28.32ZM24.96 28.32C24.96 28.0229 24.842 27.738 24.6319 27.528C24.4219 27.318 24.137 27.2 23.84 27.2C23.5429 27.2 23.2581 27.318 23.048 27.528C22.838 27.738 22.72 28.0229 22.72 28.32C22.72 28.617 22.838 28.9019 23.048 29.1119C23.2581 29.322 23.5429 29.44 23.84 29.44C24.137 29.44 24.4219 29.322 24.6319 29.1119C24.842 28.9019 24.96 28.617 24.96 28.32Z" fill="#555555" stroke="white"/>
</g>
<defs>
<clipPath id="clip0">
<rect width="32" height="32" fill="white"/>
</clipPath>
</defs>
</svg>
