<svg width="24" height="24" viewBox="0 0 24 24" fill="none" xmlns="http://www.w3.org/2000/svg">
<g clip-path="url(#clip0)">
<path d="M22.9261 1.88054C22.5695 1.52396 21.9913 1.52396 21.6349 1.88054L17.5182 5.99723C15.9089 3.22992 14.3138 0.895044 13.9677 0.394077C13.7972 0.147307 13.5163 0 13.2163 0C12.9164 0 12.6355 0.147307 12.4651 0.394199C11.7201 1.47307 5.18638 11.0524 5.18638 15.1489C5.18638 16.0991 5.35329 17.0108 5.65777 17.8574L1.07408 22.4412C0.717495 22.7978 0.717495 23.376 1.07408 23.7325C1.25231 23.9108 1.48605 24 1.71967 24C1.95329 24 2.18704 23.9109 2.36527 23.7325L6.52177 19.576C7.96099 21.7449 10.4239 23.1784 13.2165 23.1784C17.6453 23.1784 21.2486 19.5764 21.2486 15.1489C21.2486 13.3246 19.9524 10.4132 18.4487 7.64914L22.9261 3.17173C23.2826 2.81527 23.2826 2.237 22.9261 1.88054ZM7.01251 15.1489C7.01251 12.4934 10.9758 5.94026 13.2165 2.54647C14.0595 3.82268 15.1464 5.54606 16.1743 7.34077L7.13546 16.3796C7.05524 15.9817 7.01251 15.5703 7.01251 15.1489ZM19.4223 15.1489C19.4223 18.5695 16.6384 21.3522 13.2163 21.3522C10.9252 21.3522 8.92153 20.1028 7.84704 18.2505L17.095 9.00278C18.397 11.4403 19.4223 13.7981 19.4223 15.1489Z" fill="#D2A158" stroke="#F6F3EF" stroke-width="0.6"/>
</g>
<defs>
<clipPath id="clip0">
<rect width="24" height="24" fill="white"/>
</clipPath>
</defs>
</svg>
