<svg width="20" height="20" viewBox="0 0 20 20" fill="none" xmlns="http://www.w3.org/2000/svg">
<g clip-path="url(#clip0)">
<path d="M1.91961 6.98668C2.1726 7.16521 2.93523 7.69544 4.20753 8.5771C5.47986 9.45876 6.45456 10.1376 7.13165 10.6137C7.20604 10.6659 7.36409 10.7793 7.60587 10.9542C7.84769 11.1292 8.04861 11.2705 8.2085 11.3784C8.36849 11.4862 8.56192 11.6072 8.78896 11.741C9.01592 11.8748 9.22987 11.9754 9.43076 12.042C9.63168 12.1092 9.81768 12.1425 9.98878 12.1425H10H10.0113C10.1824 12.1425 10.3684 12.1092 10.5694 12.042C10.7702 11.9754 10.9843 11.8747 11.2111 11.741C11.438 11.607 11.6314 11.4862 11.7914 11.3784C11.9514 11.2705 12.1522 11.1292 12.3941 10.9542C12.6358 10.7792 12.794 10.6659 12.8684 10.6137C13.5528 10.1376 15.2941 8.92849 18.0916 6.98644C18.6347 6.60714 19.0885 6.14946 19.453 5.61372C19.8178 5.07821 20 4.51644 20 3.9287C20 3.43756 19.8232 3.01714 19.4697 2.66747C19.1163 2.31772 18.6977 2.14294 18.2142 2.14294H1.78564C1.21276 2.14294 0.771892 2.33637 0.463112 2.72321C0.154371 3.11014 0 3.59377 0 4.17408C0 4.64282 0.204681 5.15077 0.613847 5.69761C1.02297 6.24449 1.45837 6.67422 1.91961 6.98668Z" fill="#D2A158"/>
<path d="M18.8838 8.18066C16.4436 9.8323 14.5906 11.1159 13.3259 12.0312C12.9018 12.3435 12.5578 12.5874 12.2936 12.7621C12.0294 12.937 11.678 13.1156 11.2389 13.2978C10.8 13.4802 10.3909 13.5712 10.0114 13.5712H10H9.98881C9.60936 13.5712 9.20007 13.4802 8.76116 13.2978C8.32225 13.1156 7.97062 12.937 7.70648 12.7621C7.44242 12.5874 7.09827 12.3435 6.67421 12.0312C5.66968 11.2946 3.82076 10.0109 1.12735 8.18066C0.70313 7.89811 0.327387 7.57424 0 7.20972V16.0711C0 16.5624 0.174776 16.9826 0.524523 17.3323C0.874193 17.6822 1.29466 17.857 1.78576 17.857H18.2144C18.7054 17.857 19.1258 17.6822 19.4755 17.3323C19.8253 16.9825 20 16.5625 20 16.0711V7.20972C19.68 7.5667 19.3081 7.89057 18.8838 8.18066Z" fill="#D2A158"/>
</g>
<defs>
<clipPath id="clip0">
<rect width="20" height="20" fill="white"/>
</clipPath>
</defs>
</svg>
