<svg width="40" height="40" viewBox="0 0 40 40" fill="none" xmlns="http://www.w3.org/2000/svg">
<path d="M20 40C31.04 40 40 31.04 40 20C40 8.96 31.04 0 20 0C8.96 0 0 8.96 0 20C0 31.04 8.96 40 20 40ZM27.1383 18.5717H30.0017V15.71H32.865V18.5733H35.7033V21.4367H32.865V24.3H30.0017V21.4367H27.1383V18.5717ZM20.9933 12.6033L18.2833 15.2333C14.8167 11.845 8.07167 14.3133 8.07167 19.9917C8.07167 27.6933 19.0033 28.22 19.9517 21.9917H14.2983V18.5567H23.7267C24.7967 24.15 21.185 30 14.2983 30V30.0017C8.75 30.0017 4.29667 25.525 4.29667 20C4.29833 11.1033 14.8517 6.89833 20.9933 12.6033Z" fill="#D8BE9D"/>
</svg>