<svg width="24" height="24" viewBox="0 0 24 24" fill="none" xmlns="http://www.w3.org/2000/svg">
<path d="M13.3148 19.7388C15.4388 19.2078 16.9221 17.3079 16.9221 15.1187C16.9221 14.7305 16.6074 14.4155 16.219 14.4155C15.8306 14.4155 15.5159 14.7305 15.5159 15.1187C15.5159 16.6615 14.4705 18.0004 12.9736 18.3745C12.597 18.4688 12.3679 18.8505 12.4621 19.2272C12.5558 19.6024 12.9365 19.8333 13.3148 19.7388Z" fill="#D2A158"/>
<path d="M13.4062 1.40625H14.8125C15.2009 1.40625 15.5156 1.09149 15.5156 0.703125C15.5156 0.314758 15.2009 0 14.8125 0H13.4062C12.2432 0 11.2969 0.946289 11.2969 2.10938V2.82953C6.54456 3.06299 2.85938 5.75208 2.85938 10.5469C2.85938 10.9352 3.17413 11.25 3.5625 11.25H4.26562V15.1187C4.26562 18.6011 6.62531 21.6233 10.0038 22.468C10.1547 22.5057 10.2924 22.5837 10.4022 22.6935L11.5029 23.794C11.6347 23.926 11.8134 24 12 24C12.1866 24 12.3653 23.926 12.4971 23.794L13.5976 22.6935C13.7076 22.5835 13.8453 22.5055 13.9962 22.4678C17.3747 21.6233 19.7344 18.6011 19.7344 15.1187V11.25H20.4375C20.8259 11.25 21.1406 10.9352 21.1406 10.5469C21.1406 5.75134 17.4549 3.06299 12.7031 2.82953V2.10938C12.7031 1.72174 13.0186 1.40625 13.4062 1.40625ZM18.3281 15.1187C18.3281 17.9546 16.4066 20.4157 13.6553 21.1036C13.2572 21.2032 12.8936 21.4091 12.6033 21.6991L12 22.3024L11.3967 21.6991C11.1064 21.4091 10.7428 21.2031 10.3449 21.1036C7.59338 20.4157 5.67188 17.9546 5.67188 15.1187V11.25H18.3281V15.1187ZM19.7025 9.84375H4.2973C4.67999 5.71271 8.45526 4.21875 12 4.21875C15.5447 4.21875 19.32 5.71271 19.7025 9.84375Z" fill="#D2A158"/>
</svg>
