<svg width="80" height="64" viewBox="0 0 80 64" fill="none" xmlns="http://www.w3.org/2000/svg">
<path d="M64.7649 38.6037H63.3371V31.0034C63.3371 28.1655 61.0282 25.8566 58.1902 25.8566H56.4652L61.4962 16.3277C62.0201 15.3354 62.1258 14.1986 61.7936 13.1268C61.4609 12.0538 60.7295 11.1747 59.7339 10.6513L40.3878 0.482968C38.3361 -0.595554 35.7869 0.193337 34.7054 2.24125L22.2372 25.8566H19.1311C16.2932 25.8566 13.9844 28.1655 13.9844 31.0034V58.8531C13.9844 61.6911 16.2932 64 19.1311 64H58.1904C61.0283 64 63.3372 61.6911 63.3372 58.8531V51.2529H64.765C65.4554 51.2529 66.015 50.6931 66.015 50.0028V39.8538C66.0149 39.1634 65.4553 38.6037 64.7649 38.6037V38.6037ZM36.9162 3.40853C37.3551 2.57726 38.3906 2.25763 39.2246 2.69589L58.571 12.8642C58.9746 13.0763 59.2711 13.4325 59.4058 13.8669C59.54 14.2999 59.4973 14.7593 59.2855 15.1604L53.6383 25.8566H50.2828L53.4724 19.8155C53.6274 19.5218 53.6593 19.1788 53.5609 18.8617C53.4626 18.5447 53.2423 18.2798 52.9485 18.1253C52.1296 17.6949 51.528 16.9722 51.2547 16.0904C50.9821 15.2108 51.0689 14.2776 51.499 13.4629C51.654 13.1692 51.6859 12.8262 51.5875 12.5091C51.4892 12.1921 51.2689 11.9272 50.9751 11.7727L44.4146 8.32462C43.8045 8.00399 43.0496 8.23762 42.7276 8.84751C41.8375 10.5333 39.738 11.1818 38.0476 10.2935C37.4375 9.97291 36.6826 10.2067 36.3606 10.8164L28.4198 25.8565H25.0642L36.9162 3.40853ZM48.8667 16.8305C49.2119 17.9446 49.8608 18.9113 50.7378 19.6401L47.4558 25.8566H31.2468L38.0501 12.9711C40.3016 13.602 42.7401 12.8485 44.2392 11.0569L48.8196 13.4644C48.5101 14.5581 48.5222 15.719 48.8667 16.8305ZM60.8372 58.8531C60.8372 60.3127 59.6498 61.4999 58.1904 61.4999H19.1311C17.6717 61.4999 16.4844 60.3127 16.4844 58.8531V31.0034C16.4844 29.5439 17.6717 28.3566 19.1311 28.3566H58.1904C59.6498 28.3566 60.8372 29.5439 60.8372 31.0034V38.6037H55.9563C52.469 38.6037 49.6317 41.4409 49.6317 44.9284C49.6317 48.4158 52.4689 51.253 55.9563 51.253H60.8372V58.8531ZM63.5148 48.7528H55.9562C53.8473 48.7528 52.1316 47.037 52.1316 44.9282C52.1316 42.8194 53.8473 41.1037 55.9562 41.1037H63.5148V48.7528Z" fill="#555555"/>
<path d="M61.4963 16.3277L56.4654 25.8566H53.6384L59.2857 15.1604C59.4974 14.7593 59.5402 14.2999 59.4059 13.8669C59.2713 13.4325 58.9748 13.0763 58.5711 12.8642L39.2248 2.69589C38.3907 2.25763 37.3552 2.57726 36.9163 3.40853L25.0644 25.8565L22.2373 25.8566L34.7055 2.24125C35.7871 0.193337 38.3362 -0.595554 40.3879 0.482968L59.734 10.6513C60.7297 11.1747 61.4611 12.0538 61.7937 13.1268C62.126 14.1986 62.0202 15.3354 61.4963 16.3277Z" fill="#D2A158"/>
<path d="M53.4725 19.8155L50.283 25.8566H47.4559L50.738 19.6401C49.861 18.9113 49.2121 17.9446 48.8668 16.8305C48.5223 15.719 48.5102 14.5581 48.8197 13.4644L44.2394 11.0569C42.7402 12.8485 40.3018 13.602 38.0502 12.9711L31.247 25.8566L28.4199 25.8565L36.3607 10.8164C36.6827 10.2067 37.4376 9.97291 38.0477 10.2935C39.7381 11.1818 41.8377 10.5333 42.7277 8.84751C43.0497 8.23762 43.8046 8.00399 44.4147 8.32462L50.9752 11.7727C51.269 11.9272 51.4894 12.1921 51.5876 12.5091C51.686 12.8262 51.6541 13.1692 51.4991 13.4629C51.069 14.2776 50.9822 15.2108 51.2549 16.0904C51.5281 16.9722 52.1298 17.6949 52.9487 18.1253C53.2424 18.2798 53.4628 18.5447 53.561 18.8617C53.6594 19.1788 53.6275 19.5218 53.4725 19.8155Z" fill="#D2A158"/>
</svg>
