<svg width="24" height="24" viewBox="0 0 24 24" fill="none" xmlns="http://www.w3.org/2000/svg">
<path d="M18.0011 5.91741C16.0693 5.4309 14.0229 5.89745 12.9089 7.07793C12.8507 7.13945 12.7868 7.19457 12.7181 7.24272C12.9657 4.75872 15.0675 2.81249 17.6154 2.81249C18.0038 2.81249 18.3186 2.49774 18.3186 2.10937C18.3186 1.721 18.0038 1.40625 17.6154 1.40625C15.5672 1.40625 13.7435 2.38458 12.5863 3.89831C12.1139 1.67395 10.1347 0 7.77171 0H4.95921C4.57085 0 4.25609 0.314758 4.25609 0.703124C4.25609 3.41711 6.46397 5.62444 9.17795 5.62444H11.6493C11.4646 6.14519 11.3461 6.69744 11.3044 7.27019C11.2198 7.21562 11.141 7.15117 11.0711 7.07701C9.89847 5.83519 7.9896 5.3496 6.08915 5.81011C4.0501 6.30413 2.48857 7.78984 1.91234 9.7844C1.40276 11.5477 1.31267 13.7049 1.66515 15.7029C2.04546 17.8603 2.88903 19.8962 4.04057 21.4361C5.2769 23.0894 6.75163 24 8.19266 24C8.76999 24 9.32444 23.8584 9.84024 23.5794C10.5058 23.2188 11.2494 23.0284 11.9904 23.0284C12.7313 23.0284 13.4754 23.219 14.1408 23.5788C14.6548 23.8582 15.2091 24 15.7882 24C17.2295 24 18.704 23.0894 19.9405 21.4359C21.0919 19.8962 21.9356 17.8599 22.3157 15.7024C22.6556 13.7765 22.5844 11.6838 22.1204 9.96073C21.5685 7.91142 20.0672 6.43761 18.0011 5.91741V5.91741ZM9.17795 4.21874C7.4802 4.21874 6.05967 3.00897 5.73301 1.40625H7.77171C9.46946 1.40625 10.89 2.61602 11.2166 4.21874H9.17795ZM20.9309 15.4581C20.5881 17.403 19.8363 19.227 18.8142 20.5938C17.8637 21.8648 16.7609 22.5937 15.7882 22.5937C15.4464 22.5937 15.1182 22.5095 14.8112 22.3425C13.9392 21.8712 12.964 21.6221 11.9904 21.6221C11.0163 21.6221 10.0413 21.8714 9.171 22.3427C8.86301 22.5093 8.53379 22.5937 8.19266 22.5937C7.22001 22.5937 6.11717 21.8648 5.16667 20.5938C4.14439 19.2271 3.39275 17.4034 3.04997 15.4586C2.73815 13.6911 2.81798 11.716 3.26329 10.1748C3.70421 8.64879 4.85484 7.5562 6.42039 7.1768C7.81016 6.84007 9.23417 7.17992 10.0486 8.04253C10.5505 8.5739 11.2578 8.87877 11.9893 8.87913H11.9904H11.9908C12.7231 8.87895 13.4304 8.57426 13.9315 8.04326C14.6949 7.2343 16.2271 6.92101 17.6576 7.28117C18.5729 7.5117 20.1936 8.21373 20.7625 10.3264C21.1688 11.8348 21.2318 13.7532 20.9309 15.4581V15.4581Z" fill="#D2A158"/>
</svg>
