<svg width="80" height="64" viewBox="0 0 80 64" fill="none" xmlns="http://www.w3.org/2000/svg">
<path d="M51.25 0C50.5598 0 50 0.55975 50 1.25V7C50 7.69025 50.5598 8.25 51.25 8.25C51.9402 8.25 52.5 7.69025 52.5 7V1.25C52.5 0.55975 51.9402 0 51.25 0Z" fill="#D2A158"/>
<path d="M22.5 39C21.81 39 21.25 39.56 21.25 40.25C21.25 40.94 21.81 41.5 22.5 41.5C23.19 41.5 23.75 40.94 23.75 40.25C23.75 39.56 23.19 39 22.5 39Z" fill="#D2A158"/>
<path d="M68.75 36.5C68.75 33.743 66.507 31.5 63.75 31.5H54.4185C55.8631 27.7996 56.4479 23.4441 56.3351 19.567C56.3136 18.8271 56.2853 18.3993 56.2469 18.1299C56.1823 15.429 53.9645 13.25 51.25 13.25C48.493 13.25 46.25 15.493 46.25 18.25V19.5C46.25 27.4057 36.0983 31.8476 28.437 33.7524C27.8578 32.4281 26.5355 31.5 25 31.5H12.5C11.8098 31.5 11.25 32.0598 11.25 32.75V62.75C11.25 63.4402 11.8098 64 12.5 64H25C26.5252 64 27.8399 63.0841 28.4251 61.7739C29.0595 61.9366 29.6484 62.0904 30.192 62.2324C34.5564 63.3723 36.9605 64 42.8075 64H56.25C59.007 64 61.25 61.757 61.25 59C61.25 57.972 60.9379 57.0157 60.4038 56.2202C62.3348 55.5449 63.75 53.6999 63.75 51.5C63.75 50.4757 63.4455 49.5164 62.913 48.7173C64.8355 48.0408 66.25 46.2 66.25 44C66.25 42.972 65.9379 42.0157 65.4038 41.2202C67.3348 40.5449 68.75 38.6999 68.75 36.5ZM26.25 60.25C26.25 60.9392 25.6892 61.5 25 61.5H13.75V34H25C25.6892 34 26.25 34.5608 26.25 35.25V60.25ZM63.75 39C61.0689 39 60.4297 39 57.5 39C56.8098 39 56.25 39.5598 56.25 40.25C56.25 40.9402 56.8098 41.5 57.5 41.5H61.25C62.6285 41.5 63.75 42.6215 63.75 44C63.75 45.3807 62.6307 46.5 61.25 46.5H55C54.3098 46.5 53.75 47.0598 53.75 47.75C53.75 48.4402 54.3098 49 55 49H58.75C60.1121 49 61.25 50.0881 61.25 51.5C61.25 52.8807 60.1307 54 58.75 54C56.0689 54 55.4297 54 52.5 54C51.8098 54 51.25 54.5598 51.25 55.25C51.25 55.9402 51.8098 56.5 52.5 56.5H56.25C57.6285 56.5 58.75 57.6215 58.75 59C58.75 60.3785 57.6285 61.5 56.25 61.5H42.8075C37.2816 61.5 35.1234 60.9364 30.8237 59.8135C30.1939 59.649 29.503 59.4686 28.75 59.2766V36.2531C37.796 34.0984 48.75 28.8389 48.75 19.5V18.25C48.75 16.8715 49.8715 15.75 51.25 15.75C52.626 15.75 53.7474 16.8697 53.75 18.2461V18.25C53.75 18.7933 54.428 25.4604 51.7093 31.5H47.5C46.8098 31.5 46.25 32.0598 46.25 32.75C46.25 33.4402 46.8098 34 47.5 34C48.3729 34 62.3253 34 63.75 34C65.1285 34 66.25 35.1215 66.25 36.5C66.25 37.8807 65.1307 39 63.75 39Z" fill="#555555"/>
<path d="M22.5 44C21.8098 44 21.25 44.5598 21.25 45.25V55.25C21.25 55.9402 21.8098 56.5 22.5 56.5C23.1902 56.5 23.75 55.9402 23.75 55.25V45.25C23.75 44.5598 23.1902 44 22.5 44Z" fill="#555555"/>
<path d="M41.25 15.75H36.25C35.5598 15.75 35 16.3098 35 17C35 17.6902 35.5598 18.25 36.25 18.25H41.25C41.9402 18.25 42.5 17.6902 42.5 17C42.5 16.3098 41.9402 15.75 41.25 15.75Z" fill="#D2A158"/>
<path d="M66.25 15.75H61.25C60.5598 15.75 60 16.3098 60 17C60 17.6902 60.5598 18.25 61.25 18.25H66.25C66.9402 18.25 67.5 17.6902 67.5 17C67.5 16.3098 66.9402 15.75 66.25 15.75Z" fill="#D2A158"/>
<path d="M62.7401 5.5098C62.2519 5.0218 61.4606 5.0218 60.9723 5.5098L57.4374 9.04467C56.9493 9.5328 56.9493 10.3243 57.4374 10.8125C57.9258 11.3007 58.7169 11.3005 59.2053 10.8125L62.7401 7.27767C63.2283 6.78955 63.2283 5.99805 62.7401 5.5098Z" fill="#D2A158"/>
<path d="M45.0624 9.04467L41.5275 5.5098C41.0393 5.0218 40.248 5.0218 39.7596 5.5098C39.2715 5.99792 39.2715 6.78942 39.7596 7.27767L43.2945 10.8125C43.783 11.3007 44.5741 11.3005 45.0624 10.8125C45.5505 10.3244 45.5505 9.53292 45.0624 9.04467Z" fill="#D2A158"/>
</svg>
