<svg width="80" height="64" viewBox="0 0 80 64" fill="none" xmlns="http://www.w3.org/2000/svg">
<path d="M11 18L24 18" stroke="#D2A158" stroke-width="2.5" stroke-linecap="round"/>
<path d="M6 27L23 27" stroke="#D2A158" stroke-width="2.5" stroke-linecap="round"/>
<path d="M3 36L22 36" stroke="#D2A158" stroke-width="2.5" stroke-linecap="round"/>
<path d="M18 9C17.1716 9 16.5 9.67157 16.5 10.5C16.5 11.3284 17.1716 12 18 12V9ZM76.5 38L75.0377 37.6658L75.0331 37.6857L75.0291 37.7058L76.5 38ZM14.5 45.5C13.6716 45.5 13 46.1716 13 47C13 47.8284 13.6716 48.5 14.5 48.5V45.5ZM74.6856 46.2425L73.2275 45.8907L74.6856 46.2425ZM53.2608 11.6961L51.7899 11.4019L53.2608 11.6961ZM18 12H52.2802V9H18V12ZM51.7899 11.4019L50.0291 20.2058L52.9709 20.7942L54.7316 11.9903L51.7899 11.4019ZM51.5 22H65V19H51.5V22ZM65 22C67.3182 22 70.5612 22.7986 72.8277 25.0615C75.005 27.2354 76.5527 31.0376 75.0377 37.6658L77.9623 38.3342C79.6473 30.9624 78.0283 26.0146 74.9473 22.9385C71.9554 19.9514 67.8485 19 65 19V22ZM75.0291 37.7058C74.3548 41.0777 73.6322 44.2133 73.2275 45.8907L76.1438 46.5943C76.5554 44.8882 77.2871 41.7132 77.9709 38.2942L75.0291 37.7058ZM73.7192 45.5H46V48.5H73.7192V45.5ZM46 45.5H14.5V48.5H46V45.5ZM47.4687 47.3048L52.9687 20.8048L50.0313 20.1952L44.5313 46.6952L47.4687 47.3048ZM73.2275 45.8907C73.2842 45.6555 73.4931 45.5 73.7192 45.5V48.5C74.8631 48.5 75.8718 47.7216 76.1438 46.5943L73.2275 45.8907ZM52.2802 12C51.9647 12 51.728 11.7113 51.7899 11.4019L54.7316 11.9903C55.041 10.4433 53.8578 9 52.2802 9V12Z" fill="#555555"/>
<circle cx="28.5" cy="47.5" r="6.75" fill="#F6F3EF" stroke="#555555" stroke-width="2.5"/>
<circle cx="63.5" cy="47.5" r="6.75" fill="#F6F3EF" stroke="#555555" stroke-width="2.5"/>
</svg>
