<svg width="58" height="64" viewBox="0 0 58 64" fill="none" xmlns="http://www.w3.org/2000/svg">
<path d="M40.25 0C39.5598 0 39 0.55975 39 1.25V7C39 7.69025 39.5598 8.25 40.25 8.25C40.9402 8.25 41.5 7.69025 41.5 7V1.25C41.5 0.55975 40.9402 0 40.25 0Z" fill="#D2A158"/>
<path d="M11.5 39C10.81 39 10.25 39.56 10.25 40.25C10.25 40.94 10.81 41.5 11.5 41.5C12.19 41.5 12.75 40.94 12.75 40.25C12.75 39.56 12.19 39 11.5 39Z" fill="#D2A158"/>
<path d="M57.75 36.5C57.75 33.743 55.507 31.5 52.75 31.5H43.4185C44.8631 27.7996 45.4479 23.4441 45.3351 19.567C45.3136 18.8271 45.2853 18.3993 45.2469 18.1299C45.1823 15.429 42.9645 13.25 40.25 13.25C37.493 13.25 35.25 15.493 35.25 18.25V19.5C35.25 27.4058 25.0983 31.8476 17.437 33.7524C16.8577 32.4281 15.5355 31.5 14 31.5H1.5C0.80975 31.5 0.25 32.0597 0.25 32.75V62.75C0.25 63.4403 0.80975 64 1.5 64H14C15.5252 64 16.8399 63.0841 17.4251 61.7739C18.0595 61.9366 18.6484 62.0904 19.192 62.2324C23.5564 63.3722 25.9605 64 31.8075 64H45.25C48.007 64 50.25 61.757 50.25 59C50.25 57.972 49.9379 57.0158 49.4038 56.2202C51.3348 55.5449 52.75 53.6999 52.75 51.5C52.75 50.4757 52.4455 49.5164 51.913 48.7173C53.8355 48.0408 55.25 46.2 55.25 44C55.25 42.972 54.9379 42.0157 54.4038 41.2202C56.3348 40.5449 57.75 38.6999 57.75 36.5ZM15.25 60.25C15.25 60.9393 14.6892 61.5 14 61.5H2.75V34H14C14.6892 34 15.25 34.5607 15.25 35.25V60.25ZM52.75 39C50.0689 39 49.4297 39 46.5 39C45.8097 39 45.25 39.5597 45.25 40.25C45.25 40.9403 45.8097 41.5 46.5 41.5H50.25C51.6285 41.5 52.75 42.6215 52.75 44C52.75 45.3807 51.6307 46.5 50.25 46.5H44C43.3097 46.5 42.75 47.0597 42.75 47.75C42.75 48.4403 43.3097 49 44 49H47.75C49.1121 49 50.25 50.0881 50.25 51.5C50.25 52.8807 49.1307 54 47.75 54C45.0689 54 44.4297 54 41.5 54C40.8097 54 40.25 54.5597 40.25 55.25C40.25 55.9403 40.8097 56.5 41.5 56.5H45.25C46.6285 56.5 47.75 57.6215 47.75 59C47.75 60.3785 46.6285 61.5 45.25 61.5H31.8075C26.2816 61.5 24.1234 60.9364 19.8237 59.8135C19.1939 59.649 18.503 59.4686 17.75 59.2766V36.2531C26.796 34.0984 37.75 28.8389 37.75 19.5V18.25C37.75 16.8715 38.8715 15.75 40.25 15.75C41.626 15.75 42.7474 16.8697 42.75 18.2461V18.25C42.75 18.7933 43.428 25.4604 40.7093 31.5H36.5C35.8097 31.5 35.25 32.0597 35.25 32.75C35.25 33.4403 35.8097 34 36.5 34C37.3729 34 51.3252 34 52.75 34C54.1285 34 55.25 35.1215 55.25 36.5C55.25 37.8808 54.1307 39 52.75 39Z" fill="#555555"/>
<path d="M11.5 44C10.8098 44 10.25 44.5598 10.25 45.25V55.25C10.25 55.9403 10.8098 56.5 11.5 56.5C12.1902 56.5 12.75 55.9403 12.75 55.25V45.25C12.75 44.5598 12.1902 44 11.5 44Z" fill="#555555"/>
<path d="M30.25 15.75H25.25C24.5598 15.75 24 16.3098 24 17C24 17.6902 24.5598 18.25 25.25 18.25H30.25C30.9402 18.25 31.5 17.6902 31.5 17C31.5 16.3098 30.9402 15.75 30.25 15.75Z" fill="#D2A158"/>
<path d="M55.25 15.75H50.25C49.5598 15.75 49 16.3098 49 17C49 17.6902 49.5598 18.25 50.25 18.25H55.25C55.9402 18.25 56.5 17.6902 56.5 17C56.5 16.3098 55.9402 15.75 55.25 15.75Z" fill="#D2A158"/>
<path d="M51.7401 5.5098C51.2519 5.0218 50.4606 5.0218 49.9723 5.5098L46.4374 9.04467C45.9493 9.5328 45.9493 10.3243 46.4374 10.8125C46.9258 11.3007 47.7169 11.3005 48.2053 10.8125L51.7401 7.27767C52.2283 6.78955 52.2283 5.99805 51.7401 5.5098Z" fill="#D2A158"/>
<path d="M34.0624 9.04467L30.5275 5.5098C30.0393 5.0218 29.248 5.0218 28.7596 5.5098C28.2715 5.99792 28.2715 6.78942 28.7596 7.27767L32.2945 10.8125C32.783 11.3007 33.5742 11.3005 34.0624 10.8125C34.5505 10.3244 34.5505 9.53292 34.0624 9.04467Z" fill="#D2A158"/>
</svg>
