<svg width="78" height="64" viewBox="0 0 78 64" fill="none" xmlns="http://www.w3.org/2000/svg">
<path d="M10 18L23 18" stroke="#D2A158" stroke-width="2.5" stroke-linecap="round"/>
<path d="M5 27L22 27" stroke="#D2A158" stroke-width="2.5" stroke-linecap="round"/>
<path d="M2 36L21 36" stroke="#D2A158" stroke-width="2.5" stroke-linecap="round"/>
<path d="M17 9C16.1716 9 15.5 9.67157 15.5 10.5C15.5 11.3284 16.1716 12 17 12V9ZM75.5 38L74.0377 37.6658L74.0331 37.6857L74.0291 37.7058L75.5 38ZM13.5 45.5C12.6716 45.5 12 46.1716 12 47C12 47.8284 12.6716 48.5 13.5 48.5V45.5ZM73.6856 46.2425L72.2275 45.8907L73.6856 46.2425ZM52.2608 11.6961L50.7899 11.4019L52.2608 11.6961ZM17 12H51.2802V9H17V12ZM50.7899 11.4019L49.0291 20.2058L51.9709 20.7942L53.7316 11.9903L50.7899 11.4019ZM50.5 22H64V19H50.5V22ZM64 22C66.3182 22 69.5612 22.7986 71.8277 25.0615C74.005 27.2354 75.5527 31.0376 74.0377 37.6658L76.9623 38.3342C78.6473 30.9624 77.0283 26.0146 73.9473 22.9385C70.9554 19.9514 66.8485 19 64 19V22ZM74.0291 37.7058C73.3548 41.0777 72.6322 44.2133 72.2275 45.8907L75.1438 46.5943C75.5554 44.8882 76.2871 41.7132 76.9709 38.2942L74.0291 37.7058ZM72.7192 45.5H45V48.5H72.7192V45.5ZM45 45.5H13.5V48.5H45V45.5ZM46.4687 47.3048L51.9687 20.8048L49.0313 20.1952L43.5313 46.6952L46.4687 47.3048ZM72.2275 45.8907C72.2842 45.6555 72.4931 45.5 72.7192 45.5V48.5C73.8631 48.5 74.8718 47.7216 75.1438 46.5943L72.2275 45.8907ZM51.2802 12C50.9647 12 50.728 11.7113 50.7899 11.4019L53.7316 11.9903C54.041 10.4433 52.8578 9 51.2802 9V12Z" fill="#555555"/>
<circle cx="27.5" cy="47.5" r="6.75" fill="#F6F3EF" stroke="#555555" stroke-width="2.5"/>
<circle cx="62.5" cy="47.5" r="6.75" fill="#F6F3EF" stroke="#555555" stroke-width="2.5"/>
</svg>
