<svg width="84" height="30" viewBox="0 0 84 30" fill="none" xmlns="http://www.w3.org/2000/svg">
<path d="M14.3944 17.0881H5.03441L3.01841 21.5761H1.17041L8.85041 4.77607H10.6024L18.2824 21.5761H16.4104L14.3944 17.0881ZM13.7464 15.6481L9.71441 6.62407L5.68241 15.6481H13.7464Z" fill="#222222"/>
<path d="M27.2055 8.85607C28.3895 8.85607 29.4615 9.12807 30.4215 9.67207C31.3815 10.2001 32.1335 10.9521 32.6775 11.9281C33.2215 12.9041 33.4935 14.0161 33.4935 15.2641C33.4935 16.5281 33.2215 17.6481 32.6775 18.6241C32.1335 19.6001 31.3815 20.3601 30.4215 20.9041C29.4775 21.4321 28.4055 21.6961 27.2055 21.6961C26.1815 21.6961 25.2535 21.4881 24.4215 21.0721C23.6055 20.6401 22.9335 20.0161 22.4055 19.2001V26.2321H20.7015V8.95207H22.3335V11.4481C22.8455 10.6161 23.5175 9.97607 24.3495 9.52807C25.1975 9.08007 26.1495 8.85607 27.2055 8.85607ZM27.0855 20.1841C27.9655 20.1841 28.7655 19.9841 29.4855 19.5841C30.2055 19.1681 30.7655 18.5841 31.1655 17.8321C31.5815 17.0801 31.7895 16.2241 31.7895 15.2641C31.7895 14.3041 31.5815 13.4561 31.1655 12.7201C30.7655 11.9681 30.2055 11.3841 29.4855 10.9681C28.7655 10.5521 27.9655 10.3441 27.0855 10.3441C26.1895 10.3441 25.3815 10.5521 24.6615 10.9681C23.9575 11.3841 23.3975 11.9681 22.9815 12.7201C22.5815 13.4561 22.3815 14.3041 22.3815 15.2641C22.3815 16.2241 22.5815 17.0801 22.9815 17.8321C23.3975 18.5841 23.9575 19.1681 24.6615 19.5841C25.3815 19.9841 26.1895 20.1841 27.0855 20.1841Z" fill="#222222"/>
<path d="M36.7836 21.6961C36.4316 21.6961 36.1276 21.5681 35.8716 21.3121C35.6316 21.0561 35.5116 20.7441 35.5116 20.3761C35.5116 20.0081 35.6316 19.7041 35.8716 19.4641C36.1276 19.2081 36.4316 19.0801 36.7836 19.0801C37.1356 19.0801 37.4396 19.2081 37.6956 19.4641C37.9516 19.7041 38.0796 20.0081 38.0796 20.3761C38.0796 20.7441 37.9516 21.0561 37.6956 21.3121C37.4396 21.5681 37.1356 21.6961 36.7836 21.6961Z" fill="#222222"/>
<path d="M42.0615 4.77607H43.8375V20.0401H53.2455V21.5761H42.0615V4.77607Z" fill="#222222"/>
<path d="M60.2972 8.85607C61.9452 8.85607 63.2092 9.27207 64.0892 10.1041C64.9692 10.9201 65.4092 12.1361 65.4092 13.7521V21.5761H63.7772V19.6081C63.3932 20.2641 62.8252 20.7761 62.0732 21.1441C61.3372 21.5121 60.4572 21.6961 59.4332 21.6961C58.0252 21.6961 56.9052 21.3601 56.0732 20.6881C55.2412 20.0161 54.8252 19.1281 54.8252 18.0241C54.8252 16.9521 55.2092 16.0881 55.9772 15.4321C56.7612 14.7761 58.0012 14.4481 59.6972 14.4481H63.7052V13.6801C63.7052 12.5921 63.4012 11.7681 62.7932 11.2081C62.1852 10.6321 61.2972 10.3441 60.1292 10.3441C59.3292 10.3441 58.5612 10.4801 57.8252 10.7521C57.0892 11.0081 56.4572 11.3681 55.9292 11.8321L55.1612 10.5601C55.8012 10.0161 56.5692 9.60007 57.4652 9.31207C58.3612 9.00807 59.3052 8.85607 60.2972 8.85607ZM59.6972 20.3521C60.6572 20.3521 61.4812 20.1361 62.1692 19.7041C62.8572 19.2561 63.3692 18.6161 63.7052 17.7841V15.7201H59.7452C57.5852 15.7201 56.5052 16.4721 56.5052 17.9761C56.5052 18.7121 56.7852 19.2961 57.3452 19.7281C57.9052 20.1441 58.6892 20.3521 59.6972 20.3521Z" fill="#222222"/>
<path d="M76.5415 8.85607C77.7255 8.85607 78.7975 9.12807 79.7575 9.67207C80.7175 10.2001 81.4695 10.9521 82.0135 11.9281C82.5575 12.9041 82.8295 14.0161 82.8295 15.2641C82.8295 16.5121 82.5575 17.6241 82.0135 18.6001C81.4695 19.5761 80.7175 20.3361 79.7575 20.8801C78.7975 21.4241 77.7255 21.6961 76.5415 21.6961C75.4855 21.6961 74.5335 21.4721 73.6855 21.0241C72.8535 20.5761 72.1815 19.9281 71.6695 19.0801V21.5761H70.0375V3.76807H71.7415V11.3521C72.2695 10.5361 72.9415 9.92007 73.7575 9.50407C74.5895 9.07207 75.5175 8.85607 76.5415 8.85607ZM76.4215 20.1841C77.3015 20.1841 78.1015 19.9841 78.8215 19.5841C79.5415 19.1681 80.1015 18.5841 80.5015 17.8321C80.9175 17.0801 81.1255 16.2241 81.1255 15.2641C81.1255 14.3041 80.9175 13.4481 80.5015 12.6961C80.1015 11.9441 79.5415 11.3681 78.8215 10.9681C78.1015 10.5521 77.3015 10.3441 76.4215 10.3441C75.5255 10.3441 74.7175 10.5521 73.9975 10.9681C73.2935 11.3681 72.7335 11.9441 72.3175 12.6961C71.9175 13.4481 71.7175 14.3041 71.7175 15.2641C71.7175 16.2241 71.9175 17.0801 72.3175 17.8321C72.7335 18.5841 73.2935 19.1681 73.9975 19.5841C74.7175 19.9841 75.5255 20.1841 76.4215 20.1841Z" fill="#222222"/>
</svg>
