<svg width="40" height="40" viewBox="0 0 40 40" fill="none" xmlns="http://www.w3.org/2000/svg">
<rect width="40" height="40" rx="20" fill="#D8BE9D"/>
<path d="M19.9999 21.1353C24.1223 21.1353 27.4642 17.7935 27.4642 13.671C27.4642 9.5486 24.1223 6.20679 19.9999 6.20679C15.8775 6.20679 12.5356 9.54865 12.5356 13.6711C12.5407 17.7914 15.8796 21.1303 19.9999 21.1353ZM19.9999 9.65184C22.2196 9.65184 24.0191 11.4513 24.0191 13.6711C24.0191 15.8909 22.2197 17.6903 19.9999 17.6903C17.7801 17.6903 15.9806 15.8909 15.9806 13.6711C15.9806 11.4513 17.7801 9.65184 19.9999 9.65184Z" fill="white"/>
<path d="M27.3115 24.6722C28.1227 24.1379 28.6115 23.232 28.6126 22.2606C28.6239 21.4545 28.169 20.7142 27.4448 20.3601C26.7006 19.9884 25.8099 20.0721 25.148 20.576C22.0807 22.8122 17.9204 22.8122 14.8531 20.576C14.1902 20.0748 13.301 19.9912 12.5564 20.3601C11.8324 20.7142 11.3773 21.4536 11.3874 22.2595C11.3891 23.2306 11.8777 24.1363 12.6885 24.671C13.7287 25.3628 14.8614 25.904 16.0532 26.2787C16.2553 26.3415 16.4639 26.3997 16.679 26.4533L13.2087 29.8467C12.2984 30.7299 12.2764 32.1839 13.1596 33.0943C14.0429 34.0047 15.4969 34.0267 16.4073 33.1434C16.4262 33.125 16.4449 33.1063 16.4632 33.0873L20.0001 29.4263L23.5439 33.0942C24.4265 34.0052 25.8805 34.0284 26.7915 33.1458C27.7026 32.2633 27.7257 30.8093 26.8432 29.8982C26.8248 29.8792 26.806 29.8604 26.7869 29.842L23.3223 26.4521C23.5374 26.397 23.7468 26.3384 23.9504 26.2764C25.1408 25.9031 26.2725 25.363 27.3115 24.6722Z" fill="white"/>
</svg>