<svg width="72" height="35" viewBox="0 0 72 35" fill="none" xmlns="http://www.w3.org/2000/svg">
<path d="M38 22.9999L38.1408 23.4797L38 22.9999ZM69.9945 7.57374C70.0353 7.30063 69.8469 7.04618 69.5738 7.00542L65.1231 6.34116C64.85 6.3004 64.5955 6.48876 64.5548 6.76188C64.514 7.03499 64.7024 7.28944 64.9755 7.33021L68.9317 7.92065L68.3412 11.8768C68.3005 12.15 68.4888 12.4044 68.7619 12.4452C69.0351 12.4859 69.2895 12.2976 69.3303 12.0244L69.9945 7.57374ZM2 22.9999C1.86624 23.4817 1.86643 23.4818 1.86669 23.4818C1.86687 23.4819 1.8672 23.482 1.86756 23.4821C1.86828 23.4823 1.86929 23.4826 1.87057 23.4829C1.87314 23.4836 1.87682 23.4846 1.88162 23.4859C1.89123 23.4886 1.90527 23.4924 1.9237 23.4973C1.96055 23.5073 2.01489 23.5217 2.08614 23.5403C2.22863 23.5773 2.43875 23.6307 2.71173 23.6966C3.25767 23.8285 4.05516 24.0105 5.06607 24.2125C7.0876 24.6165 9.96425 25.1009 13.3906 25.4238C20.2377 26.0691 29.3074 26.0723 38.1408 23.4797L37.8592 22.5202C29.1926 25.0638 20.2623 25.067 13.4844 24.4282C10.0982 24.1091 7.25615 23.6304 5.26205 23.2319C4.26515 23.0327 3.48062 22.8536 2.94647 22.7246C2.67941 22.6601 2.47498 22.6081 2.33793 22.5725C2.26941 22.5546 2.21774 22.5409 2.18351 22.5317C2.1664 22.5271 2.15364 22.5236 2.14533 22.5213C2.14117 22.5202 2.13812 22.5194 2.13619 22.5188C2.13522 22.5186 2.13454 22.5184 2.13413 22.5183C2.13393 22.5182 2.13383 22.5182 2.13373 22.5182C2.13371 22.5181 2.13376 22.5182 2 22.9999ZM38.1408 23.4797C46.94 20.8971 54.8517 17.0031 60.5596 13.7585C63.4148 12.1356 65.7214 10.6734 67.3154 9.61621C68.1125 9.08758 68.7315 8.66007 69.152 8.3642C69.3622 8.21626 69.5229 8.10122 69.6313 8.02289C69.6855 7.98372 69.7267 7.95373 69.7545 7.93339C69.7684 7.92322 69.779 7.91547 69.7861 7.91018C69.7897 7.90754 69.7925 7.90552 69.7944 7.90412C69.7953 7.90342 69.796 7.90288 69.7966 7.90249C69.7968 7.9023 69.7971 7.90213 69.7972 7.90203C69.7974 7.9019 69.7975 7.90181 69.5 7.49994C69.2025 7.09807 69.2025 7.09806 69.2025 7.09808C69.2024 7.09815 69.2023 7.09821 69.2022 7.09833C69.2018 7.09858 69.2013 7.09898 69.2005 7.09954C69.199 7.10066 69.1966 7.1024 69.1934 7.10476C69.187 7.10948 69.1772 7.11666 69.1641 7.12626C69.1379 7.14545 69.0983 7.17428 69.0457 7.21228C68.9405 7.28826 68.7833 7.4009 68.5765 7.54638C68.163 7.83733 67.5516 8.25963 66.7627 8.78285C65.1848 9.82937 62.8978 11.2792 60.0654 12.8892C54.3983 16.1106 46.56 19.9665 37.8592 22.5202L38.1408 23.4797Z" fill="#DADADA"/>
<circle cx="2" cy="22.9999" r="1.5" fill="white" stroke="#DADADA"/>
</svg>
