<svg width="30" height="24" viewBox="0 0 30 24" fill="none" xmlns="http://www.w3.org/2000/svg">
<g clip-path="url(#clip0)">
<path d="M28.7784 11.1824L22.2128 7.21159V4.72762C22.2128 4.57602 22.1312 4.43024 22.0029 4.35444L15.2216 0.255316C15.0816 0.173684 14.9067 0.173684 14.7668 0.255316L7.98542 4.35444C7.85714 4.43607 7.77551 4.57602 7.77551 4.72762V7.21159L1.20991 11.1824C1.08163 11.2641 1 11.404 1 11.5556V18.7918C1 18.9375 1.06997 19.0716 1.19242 19.1533L7.97376 23.7305C8.1137 23.8238 8.30029 23.8297 8.44606 23.7422L15 19.783L21.5539 23.7422C21.6239 23.783 21.6997 23.8063 21.7813 23.8063C21.8571 23.8063 21.9388 23.783 22.0087 23.7422L28.7901 19.6431C28.9184 19.5614 29 19.4215 29 19.2699V11.5556C28.9883 11.404 28.9067 11.2582 28.7784 11.1824ZM7.78134 22.5469L1.87464 18.5585V12.4069L7.78134 15.8996V22.5469ZM8.22449 15.1474L2.22449 11.5964L7.78717 8.23782V11.9696C7.78134 12.1095 7.85131 12.2437 7.97376 12.3253L10.3644 13.9404L8.22449 15.1474ZM14.5627 19.0192L8.65598 22.5877V15.9055L11.1808 14.4886L14.5627 16.7684V19.0192ZM14.5627 15.7189L8.65598 11.7364V5.50313L14.5627 9.07164V15.7189ZM14.9942 8.31363L9.05831 4.72762L14.9942 1.14161L20.93 4.72762L14.9942 8.31363ZM21.3382 5.50313V12.197L15.4315 15.7655V9.07164L21.3382 5.50313ZM21.3324 22.5935L15.4257 19.025V16.7859H15.4315L18.895 14.6926L21.3324 15.923V22.5935ZM21.758 15.1533L19.7813 14.1562L22.0029 12.8151C22.1312 12.7335 22.2128 12.5935 22.2128 12.4419V8.23199L27.7405 11.5731L21.758 15.1533ZM28.1195 19.025L22.2128 22.5935V15.8996L28.1195 12.3661V19.025Z" fill="#D2A158" stroke="#D2A158" stroke-width="0.4"/>
</g>
<defs>
<clipPath id="clip0">
<rect width="30" height="24" fill="white"/>
</clipPath>
</defs>
</svg>
