<svg width="20" height="20" viewBox="0 0 20 20" fill="none" xmlns="http://www.w3.org/2000/svg">
<g clip-path="url(#clip0)">
<path d="M12.5003 5.41663C12.0403 5.41663 11.667 5.04329 11.667 4.58329V3.33329H8.33366V4.58329C8.33366 5.04329 7.96032 5.41663 7.50032 5.41663C7.04033 5.41663 6.66699 5.04329 6.66699 4.58329V3.33329C6.66699 2.41413 7.41449 1.66663 8.33366 1.66663H11.667C12.5862 1.66663 13.3337 2.41413 13.3337 3.33329V4.58329C13.3337 5.04329 12.9603 5.41663 12.5003 5.41663Z" fill="#D2A158"/>
<path d="M10.5917 12.8167C10.4417 12.875 10.225 12.9167 10 12.9167C9.775 12.9167 9.55833 12.875 9.35833 12.8L0 9.68335V16.0417C0 17.3083 1.025 18.3333 2.29167 18.3333H17.7083C18.975 18.3333 20 17.3083 20 16.0417V9.68335L10.5917 12.8167Z" fill="#D2A158"/>
<path d="M20 6.45829V8.36663L10.2 11.6333C10.1333 11.6583 10.0667 11.6666 10 11.6666C9.93333 11.6666 9.86667 11.6583 9.8 11.6333L0 8.36663V6.45829C0 5.19163 1.025 4.16663 2.29167 4.16663H17.7083C18.975 4.16663 20 5.19163 20 6.45829Z" fill="#D2A158"/>
</g>
<defs>
<clipPath id="clip0">
<rect width="20" height="20" fill="white"/>
</clipPath>
</defs>
</svg>
