<svg width="32" height="32" viewBox="0 0 32 32" fill="none" xmlns="http://www.w3.org/2000/svg">
<g clip-path="url(#clip0)">
<path d="M7.09369 27.2939L5.44092 26.5593C5.90002 25.4574 7.36915 24.8147 8.9301 24.0801C10.4911 23.3456 12.4193 22.5192 12.4193 21.5092V20.1318C11.8684 19.6727 10.9502 18.6627 10.7665 17.1936C10.3074 16.7345 9.57285 15.9081 9.57285 14.8062C9.57285 14.1635 9.84831 13.6126 10.032 13.2453C9.84831 12.5107 9.66467 11.1334 9.66467 10.0316C9.66467 6.45057 12.1438 4.06323 16.0921 4.06323C17.194 4.06323 18.5713 4.33869 19.3058 5.16508C21.0504 5.53236 22.5196 7.55242 22.5196 10.0316C22.5196 11.5925 22.2441 12.878 22.0605 13.5208C22.2441 13.7962 22.4277 14.2553 22.4277 14.8062C22.4277 15.9999 21.785 16.8263 21.2341 17.1936C21.0504 18.6627 20.224 19.5809 19.6731 20.04V21.5092C19.6731 22.3355 21.3259 22.9783 22.795 23.5292C24.5396 24.172 26.376 24.9065 27.0188 26.3756L25.2742 27.0184C24.9987 26.2838 23.5296 25.7329 22.1523 25.2738C20.1322 24.5392 17.8367 23.7129 17.8367 21.601V19.2136L18.2958 18.9382C18.2958 18.9382 19.3977 18.2036 19.3977 16.7345V16.0917L19.9486 15.8163C20.0404 15.8163 20.4995 15.5408 20.4995 14.8062C20.4995 14.6226 20.3159 14.3471 20.224 14.2553L19.8568 13.888L20.0404 13.4289C20.0404 13.4289 20.4995 11.9598 20.4995 10.1234C20.4995 8.3788 19.4895 7.09331 18.6631 7.09331H18.1122L17.8367 6.63421C17.8367 6.26693 17.194 5.89965 16.0921 5.89965C13.2457 5.89965 11.5011 7.4606 11.5011 10.0316C11.5011 11.2252 11.9602 13.2453 11.9602 13.2453L12.052 13.7044L11.6847 14.1635C11.5929 14.1635 11.4093 14.439 11.4093 14.8062C11.4093 15.2654 11.9602 15.8163 12.2356 15.9999L12.6029 16.2754V16.7345C12.6029 18.1118 13.7966 18.8464 13.7966 18.9382L14.2557 19.2136V21.601C14.2557 23.8047 11.8684 24.9065 9.66467 25.8247C8.65464 26.192 7.27733 26.8348 7.09369 27.2939Z" fill="#555555" stroke="white" stroke-width="0.7"/>
<path d="M16.0919 31.6094C7.46079 31.6094 0.482422 24.631 0.482422 15.9999C0.482422 7.36875 7.46079 0.390381 16.0919 0.390381C24.7231 0.390381 31.7015 7.36875 31.7015 15.9999C31.7015 24.631 24.6313 31.6094 16.0919 31.6094ZM16.0919 2.22679C8.47082 2.22679 2.31884 8.37878 2.31884 15.9999C2.31884 23.621 8.47082 29.773 16.0919 29.773C23.7131 29.773 29.865 23.621 29.865 15.9999C29.865 8.37878 23.6212 2.22679 16.0919 2.22679Z" fill="#555555" stroke="white" stroke-width="0.7"/>
</g>
<defs>
<clipPath id="clip0">
<rect width="32" height="32" fill="white"/>
</clipPath>
</defs>
</svg>
