<svg width="40" height="40" viewBox="0 0 40 40" fill="none" xmlns="http://www.w3.org/2000/svg">
<path d="M20 40C31.0457 40 40 31.0457 40 20C40 8.95431 31.0457 0 20 0C8.95431 0 0 8.95431 0 20C0 31.0457 8.95431 40 20 40Z" fill="#D8BE9D"/>
<path fill-rule="evenodd" clip-rule="evenodd" d="M19.2447 28.7719H20.8145C20.8145 28.7719 21.2887 28.7198 21.5307 28.4588C21.7536 28.2193 21.7464 27.7693 21.7464 27.7693C21.7464 27.7693 21.7158 25.663 22.6934 25.3529C23.657 25.0473 24.8945 27.3886 26.2061 28.2888C27.198 28.9701 27.9517 28.8207 27.9517 28.8207L31.4587 28.7719C31.4587 28.7719 33.2934 28.6589 32.4235 27.2164C32.3522 27.0984 31.9169 26.1493 29.8159 24.1992C27.6169 22.1581 27.9114 22.4882 30.5603 18.9576C32.1736 16.8075 32.8185 15.4947 32.6171 14.9325C32.4249 14.397 31.2384 14.5386 31.2384 14.5386L27.2896 14.5632C27.2896 14.5632 26.9969 14.5232 26.7798 14.653C26.5676 14.7803 26.4311 15.0769 26.4311 15.0769C26.4311 15.0769 25.8061 16.7408 24.9726 18.1558C23.2142 21.1417 22.5112 21.2992 22.2238 21.1138C21.5553 20.6817 21.7222 19.378 21.7222 18.4517C21.7222 15.5582 22.1611 14.3517 20.8676 14.0394C20.4384 13.9357 20.1225 13.8672 19.0248 13.8562C17.6158 13.8416 16.4233 13.8605 15.748 14.1913C15.2988 14.4113 14.9523 14.9015 15.1633 14.9297C15.4243 14.9646 16.0154 15.089 16.3288 15.5158C16.7334 16.0662 16.7192 17.3027 16.7192 17.3027C16.7192 17.3027 16.9516 20.7088 16.1762 21.132C15.6439 21.4222 14.9138 20.8297 13.3461 18.1209C12.5429 16.7333 11.9365 15.1996 11.9365 15.1996C11.9365 15.1996 11.8195 14.9129 11.611 14.7596C11.3578 14.5739 11.0042 14.5147 11.0042 14.5147L7.25181 14.5393C7.25181 14.5393 6.68851 14.555 6.48173 14.7999C6.29776 15.0177 6.46711 15.4684 6.46711 15.4684C6.46711 15.4684 9.40483 22.3413 12.7311 25.8049C15.7812 28.9804 19.2447 28.7719 19.2447 28.7719Z" fill="white"/>
</svg>