<svg width="40" height="40" viewBox="0 0 40 40" fill="none" xmlns="http://www.w3.org/2000/svg">
<rect width="40" height="40" rx="20" fill="#D8BE9D"/>
<path d="M24.8535 7H21.2306C17.5602 7 13.8565 9.86991 13.8565 16.2816C13.8565 19.6027 15.1858 22.1892 17.6226 23.6603L13.1626 32.208C12.9512 32.6123 12.9456 33.0705 13.1478 33.4336C13.3451 33.7882 13.7061 34 14.1129 34H16.369C16.8815 34 17.2811 33.7377 17.4728 33.2782L21.6545 24.6175H21.9597V32.9206C21.9597 33.5057 22.426 34 22.978 34H24.9489C25.5679 34 26 33.5424 26 32.8871V8.18141C26.0001 7.48584 25.5287 7 24.8535 7ZM21.9597 20.7703H21.4213C19.3338 20.7703 18.0876 18.9661 18.0876 15.9439C18.0876 12.1861 19.6619 10.8472 21.1352 10.8472H21.9597V20.7703Z" fill="white"/>
</svg>